<svg width="26" height="30" viewBox="0 0 26 30" fill="none" xmlns="http://www.w3.org/2000/svg">
<path d="M23.8023 7.03704C22.3547 6.70813 21.0452 5.91386 20.0616 4.76822C19.078 3.62257 18.471 2.18444 18.3276 0.660191V0H13.3177V20.5109C13.3187 21.421 13.0425 22.3084 12.5283 23.0473C12.0141 23.7863 11.2879 24.3393 10.4526 24.6281C9.61733 24.9169 8.71526 24.9268 7.8742 24.6564C7.03314 24.3861 6.29573 23.8491 5.76642 23.1217C5.29222 22.4778 5.00184 21.7096 4.92813 20.904C4.85442 20.0985 5.00032 19.2877 5.34933 18.5634C5.69834 17.839 6.23653 17.23 6.90305 16.8052C7.56956 16.3805 8.33781 16.1568 9.12091 16.1597C9.55401 16.1571 9.98494 16.2229 10.3988 16.3547V11.1032C9.91718 11.0416 9.43183 11.0165 8.94665 11.0282C7.1595 11.0775 5.42505 11.6643 3.9557 12.7166C2.48635 13.7689 1.34589 15.2411 0.673951 16.9529C0.00201666 18.6647 -0.172219 20.5418 0.172579 22.3543C0.517378 24.1669 1.36625 25.8362 2.61523 27.1579C3.89529 28.5026 5.53334 29.4237 7.32124 29.8043C9.10914 30.1849 10.9662 30.0078 12.6564 29.2954C14.3467 28.583 15.7938 27.3675 16.8139 25.8033C17.8341 24.2392 18.3812 22.3971 18.3857 20.5109V10.0079C20.4063 11.4992 22.8293 12.297 25.3125 12.2886V7.18708C24.8247 7.18916 24.3381 7.13887 23.8603 7.03704H23.8023Z" fill="#C2BCBC"/>
</svg>
