<svg width="30" height="28" viewBox="0 0 30 28" fill="none" xmlns="http://www.w3.org/2000/svg">
<path d="M26.6547 10.7226C25.7062 10.7226 24.8716 11.11 24.2582 11.7161C22.0009 10.1727 18.9595 9.1792 15.5893 9.07298L17.3408 1.27472L22.9178 2.51194C22.9178 3.86164 24.0306 4.96139 25.3964 4.96139C26.7875 4.96139 27.9066 3.83039 27.9066 2.4807C27.9066 1.131 26.7938 0 25.3964 0C24.4226 0 23.5817 0.58112 23.1643 1.37469L17.0057 0.0249944C16.6959 -0.0562375 16.3924 0.162464 16.3102 0.468646L14.3879 9.06673C11.043 9.2042 8.03327 10.1977 5.76961 11.7411C5.15628 11.11 4.29002 10.7226 3.34156 10.7226C-0.174063 10.7226 -1.32486 15.3841 1.89358 16.9775C1.77976 17.4711 1.72918 17.996 1.72918 18.5209C1.72918 23.7572 7.69815 28 15.0266 28C22.3866 28 28.3556 23.7572 28.3556 18.5209C28.3556 17.996 28.2987 17.4461 28.1596 16.9525C31.3148 15.3528 30.1513 10.7226 26.6547 10.7226V10.7226ZM6.99629 17.3086C6.99629 15.9339 8.10915 14.8279 9.50654 14.8279C10.8723 14.8279 11.9852 15.9277 11.9852 17.3086C11.9852 18.6583 10.8723 19.7581 9.50654 19.7581C8.11547 19.7643 6.99629 18.6583 6.99629 17.3086V17.3086ZM20.5466 23.1511C18.245 25.4256 11.7512 25.4256 9.44963 23.1511C9.19671 22.9324 9.19671 22.545 9.44963 22.295C9.67094 22.0763 10.063 22.0763 10.2843 22.295C12.0421 24.0759 17.8719 24.1071 19.7056 22.295C19.9269 22.0763 20.319 22.0763 20.5403 22.295C20.7995 22.545 20.7995 22.9324 20.5466 23.1511ZM20.496 19.7643C19.1302 19.7643 18.0174 18.6646 18.0174 17.3149C18.0174 15.9402 19.1302 14.8342 20.496 14.8342C21.8871 14.8342 23.0063 15.9339 23.0063 17.3149C23 18.6583 21.8871 19.7643 20.496 19.7643Z" fill="#C2BCBC"/>
</svg>
