<svg width="27" height="26" viewBox="0 0 27 26" fill="none" xmlns="http://www.w3.org/2000/svg">
<path d="M12.886 22.9656H14.1777V25.92C22.983 24.977 27.6792 16.0726 26.9204 9.80265C26.1575 3.52996 19.5474 -0.801637 12.1177 0.12479C4.68932 1.05398 -0.688545 6.89102 0.0716064 13.1651C0.765481 18.8698 6.29619 22.9711 12.886 22.9656ZM21.2017 16.9025H18.7251V10.0742C18.7266 9.81647 18.7026 9.5592 18.6534 9.30635C18.6194 9.11642 18.5435 8.93683 18.4316 8.7811C18.3137 8.63168 18.1599 8.51582 17.9852 8.44471C17.7796 8.35373 17.4942 8.30685 17.1426 8.30685C16.4162 8.30685 15.8481 8.50124 15.4505 8.88036C15.0569 9.25672 14.8648 9.75302 14.8648 10.3968V16.9025H12.3896V10.0742C12.3896 9.79162 12.3639 9.52968 12.3098 9.2967C12.2698 9.10393 12.1901 8.92206 12.0758 8.76317C11.9649 8.61802 11.8184 8.5053 11.6511 8.43644C11.4005 8.34096 11.1339 8.29692 10.8666 8.30685C10.4446 8.30685 10.0821 8.38819 9.79127 8.54673C9.48964 8.70803 9.24347 8.90517 9.05952 9.12851C8.88428 9.33408 8.74724 9.57046 8.6551 9.82608C8.57124 10.0632 8.53066 10.2535 8.53066 10.3968V16.9025H6.05273V6.2927H8.43057V7.11987C9.20695 6.41953 10.197 6.06385 11.3806 6.06385C12.0704 6.06385 12.7074 6.20585 13.2728 6.48433C13.6867 6.68698 14.0221 6.98752 14.271 7.38318C14.5835 7.04129 14.9527 6.76143 15.372 6.54361C16.0008 6.22162 16.6959 6.05715 17.3995 6.06385C17.9433 6.06385 18.4451 6.12313 18.8901 6.23894C19.354 6.3575 19.7612 6.54912 20.1007 6.80692C20.4496 7.073 20.7228 7.42041 20.9149 7.84088C21.1056 8.25585 21.2017 8.75077 21.2017 9.316V16.9025V16.9025Z" fill="#C2BCBC"/>
</svg>
