<svg width="35" height="21" viewBox="0 0 35 21" fill="none" xmlns="http://www.w3.org/2000/svg">
<path fill-rule="evenodd" clip-rule="evenodd" d="M34.1972 1.38247C34.4393 0.586238 34.1972 0 33.0378 0H29.2098C28.2357 0 27.7865 0.506031 27.543 1.06456C27.543 1.06456 25.5961 5.7253 22.8385 8.75273C21.946 9.63063 21.5406 9.90917 21.0535 9.90917C20.81 9.90917 20.4439 9.63063 20.4439 8.83294V1.38247C20.4439 0.425824 20.1756 0 19.3648 0H13.3449C12.7368 0 12.3708 0.443324 12.3708 0.864773C12.3708 1.77038 13.7503 1.98037 13.8918 4.52949V10.0681C13.8918 11.2829 13.6687 11.5031 13.1816 11.5031C11.8837 11.5031 8.72648 6.82048 6.85256 1.46268C6.48945 0.419991 6.12195 0 5.14343 0H1.31247C0.218745 0 0 0.506031 0 1.06456C0 2.05912 1.29789 6.99985 6.04466 13.5345C9.20918 17.9969 13.6643 20.4162 17.7228 20.4162C20.1567 20.4162 20.4571 19.8796 20.4571 18.9536V15.5805C20.4571 14.5057 20.6875 14.2914 21.4589 14.2914C22.0277 14.2914 23.0004 14.5714 25.2724 16.7224C27.8682 19.2729 28.2954 20.4162 29.7567 20.4162H33.5847C34.6784 20.4162 35.2268 19.8796 34.9118 18.8179C34.5647 17.7621 33.3251 16.2294 31.6816 14.4109C30.7891 13.3756 29.4504 12.26 29.0436 11.7014C28.4763 10.9854 28.6381 10.666 29.0436 10.0287C29.0436 10.0287 33.7101 3.5743 34.1957 1.38247H34.1972Z" fill="#C2BCBC"/>
</svg>
